<svg class="illustration"  width="1155" height="700" viewBox="0 0 1155 700" fill="none" xmlns="http://www.w3.org/2000/svg">
<path d="M396.364 360.377C396.364 360.377 427.088 345.746 437.33 348.56C441.606 349.685 448.471 351.149 454.661 355.313C463.215 361.052 464.453 368.818 460.739 370.731C457.813 372.194 443.407 368.142 443.407 368.142C443.407 368.142 437.217 371.181 432.153 375.233C428.326 378.271 408.744 379.847 408.744 379.847C388.599 360.264 396.364 360.377 396.364 360.377Z" fill="#F8BCBF"/>
<path opacity="0.2" d="M155.184 512.422C172.516 470.219 240.267 457.389 268.965 451.987C426.637 422.163 514.421 523.339 596.127 479.673C642.157 455.138 619.536 420.363 691.563 360.04C702.254 351.036 741.644 318.849 836.18 300.842C911.584 286.549 982.148 273.044 1000.49 302.53C1020.41 334.605 951.311 373.882 944.896 470.894C940.282 540.783 971.794 588.051 951.649 602.232C927.903 618.888 872.982 561.604 845.634 581.074C830.328 591.99 844.508 615.737 832.016 634.531C798.253 685.063 689.875 651.525 504.855 658.728C351.346 664.693 312.744 692.153 247.92 658.728C187.822 627.891 135.602 560.253 155.184 512.422Z" fill="#6BC6C4"/>
<path d="M500.786 260.815C508.271 257.573 526.561 257.565 539.365 262.651C541.77 263.634 531.562 268.464 528.955 268.595C528.955 268.595 569.898 270.507 569.204 274.968C568.509 279.428 560.993 281.651 550.219 282.259C539.445 282.867 513.001 284.595 499.673 281.838C491.247 288.392 476.573 306.752 476.573 306.752L464.52 286.597C475.266 276.627 487.342 266.832 500.786 260.815Z" fill="#F8BCBF"/>
<path d="M325.012 333.479H177.806V348.335H325.012V333.479Z" fill="#D4D952"/>
<path d="M272.003 318.511H160.023V333.367H272.003V318.511Z" fill="#D4D952"/>
<path d="M215.957 348.335H160.023V363.191H215.957V348.335Z" fill="#D4D952"/>
<path d="M266.039 333.479H158.11" stroke="#5C51A6" stroke-miterlimit="10"/>
<path d="M219.784 348.335H187.935" stroke="#5C51A6" stroke-miterlimit="10"/>
<path d="M177.806 333.479V348.335" stroke="#5C51A6" stroke-miterlimit="10"/>
<path d="M215.958 318.511V333.479" stroke="#5C51A6" stroke-miterlimit="10"/>
<path d="M251.408 333.479V348.335" stroke="#5C51A6" stroke-miterlimit="10"/>
<path d="M189.847 363.191H158.11" stroke="#5C51A6" stroke-miterlimit="10"/>
<path fill-rule="evenodd" clip-rule="evenodd" d="M665.566 88.0235C670.414 88.0235 674.344 84.0933 674.344 79.2451C674.344 74.397 670.414 70.4668 665.566 70.4668C660.718 70.4668 656.787 74.397 656.787 79.2451C656.787 84.0933 660.718 88.0235 665.566 88.0235ZM432.603 147.221H419.998C419.21 147.221 418.647 146.658 418.76 145.758C419.097 143.507 421.236 141.031 425.737 140.694C424.274 140.468 423.261 139.23 423.261 137.767C423.261 136.079 424.612 134.729 426.3 134.729C427.988 134.729 429.339 136.079 429.339 137.767C429.339 139.23 428.326 140.356 426.975 140.694C430.802 140.919 432.828 143.507 433.728 145.42C434.178 146.208 433.503 147.221 432.603 147.221ZM545.155 202.738C552.585 207.387 554.84 217.178 550.192 224.608C545.543 232.038 535.752 234.293 528.322 229.645C520.892 224.997 518.637 215.205 523.285 207.775C527.933 200.345 537.725 198.09 545.155 202.738ZM648.121 205.968L661.063 207.544L660.951 207.656L661.964 207.994L616.046 322L529.051 365.666L521.736 358.238L521.285 357.338C520.047 354.862 521.06 351.823 523.536 350.585L601.528 311.421C602.429 310.858 603.442 310.745 604.342 310.858C604.117 309.845 604.229 308.832 604.567 307.819L640.468 209.569C641.593 206.418 644.97 204.843 648.121 205.968ZM494.951 368.48L428.888 378.721C426.187 379.172 424.274 381.648 424.724 384.461L425.062 386.937L501.028 375.12L500.69 372.644C500.24 369.943 497.652 368.142 494.951 368.48ZM427.106 292.017L466.978 272.396C475.869 265.756 499.728 298.393 490.724 304.808L446.801 327.355C441.511 331.407 435.209 333.433 428.794 333.433C425.417 333.433 422.041 332.87 418.777 331.744L370.141 316.148C370.254 318.849 370.591 321.099 370.816 322.562C371.829 328.077 371.604 344.283 370.816 361.84C379.482 358.689 388.373 355.2 396.476 351.148C406.492 346.196 424.387 382.323 414.37 387.274C394.563 396.953 379.595 403.256 368.228 407.082C367.665 415.185 367.327 420.362 367.327 420.362H276.393V443.658C276.393 457.164 287.422 468.193 300.927 468.193H391.299C396.926 468.193 401.428 472.694 401.428 478.322V497.904C397.489 502.293 391.974 507.808 387.923 511.184C385.784 512.985 384.096 514.223 383.309 514.335H383.196H245.894C243.08 514.335 240.717 511.972 240.717 509.046V483.724C240.717 481.023 241.505 478.547 242.855 476.408C246.794 439.044 244.768 401.342 237.228 364.541C229.013 324.813 214.269 286.211 193.224 250.423C188.497 242.432 192.099 232.528 200.089 229.039C201.214 228.589 202.34 228.252 203.578 228.027H203.915C210.218 226.901 216.408 229.94 219.559 235.454C226.649 248.284 232.952 261.339 238.466 274.844C239.141 276.345 239.717 277.846 240.292 279.346C240.579 280.096 240.867 280.847 241.167 281.597L281.345 267.867L282.695 280.922C291.782 266.082 301.919 256.307 307.754 250.681C309.796 248.711 311.31 247.251 312.069 246.259C312.182 246.146 312.632 246.484 313.194 247.159C313.718 247.781 314.421 248.699 315.289 249.832C320.386 256.488 331.179 270.584 344.931 275.97L345.494 265.954V265.728V265.391L345.607 260.439L427.106 292.017ZM258.386 478.997V480.347C258.836 479.897 259.174 479.447 259.399 478.884L258.386 478.997Z" fill="#b8e986"/>
<path opacity="0.4" d="M425.85 641.734C545.127 641.734 641.82 634.78 641.82 626.203C641.82 617.625 545.127 610.672 425.85 610.672C306.574 610.672 209.881 617.625 209.881 626.203C209.881 634.78 306.574 641.734 425.85 641.734Z" fill="#AFE3E2"/>
<path opacity="0.4" d="M928.691 637.569C941.971 633.518 957.952 638.807 971.233 635.656" stroke="#AFE3E2" stroke-width="2" stroke-miterlimit="10"/>
<path opacity="0.3" d="M536.74 232.061C545.504 232.061 552.608 224.956 552.608 216.192C552.608 207.428 545.504 200.324 536.74 200.324C527.976 200.324 520.871 207.428 520.871 216.192C520.871 224.956 527.976 232.061 536.74 232.061Z" fill="white"/>
<path fill-rule="evenodd" clip-rule="evenodd" d="M574.519 59.3252H499.903V69.3415H574.519V59.3252ZM403.093 568.243H471.068C471.068 568.243 472.921 446.247 469.208 437.468C463.021 423.253 431.39 423.055 403.902 422.884C388.922 422.791 375.172 422.705 367.44 420.362H276.506V443.658C276.506 457.276 287.535 468.193 301.04 468.193H392.964C398.591 468.193 403.093 472.694 403.093 478.321V568.243ZM515.268 605.382C517.631 607.183 517.969 609.997 516.843 612.247C518.081 612.81 518.982 613.936 518.982 615.399C518.982 617.199 517.406 618.775 515.605 618.775H498.049C498.836 619.338 499.399 620.351 499.399 621.476C499.399 623.277 497.936 624.852 496.023 624.852H404.751C402.837 624.852 401.374 623.277 401.374 621.476C401.374 619.563 402.837 618.1 404.751 618.1H440.539L445.379 612.022L451.006 605.045L459.334 594.578L459.559 594.353C459.559 594.353 464.398 596.266 470.588 598.855L479.029 588.276C479.029 588.276 506.827 598.742 515.268 605.382ZM595.181 265.841C589.104 265.841 584.152 270.681 583.927 276.645C579.875 276.083 554.092 273.944 546.889 280.022C545.539 281.147 543.176 283.51 541.487 286.662C541.15 286.437 540.812 286.211 540.362 285.986C537.323 284.411 534.06 283.736 530.796 283.848C531.557 272.999 531.544 264.522 531.53 255.977V255.976C531.517 247.897 531.504 239.756 532.146 229.49C533.046 229.603 533.947 229.715 534.847 229.715C543.963 229.715 551.278 222.287 551.278 213.284C551.278 204.28 543.851 196.853 534.847 196.853C525.844 196.853 518.416 204.28 518.416 213.284C518.416 221.049 523.818 227.577 531.133 229.265C530.499 239.516 530.516 247.671 530.532 255.751V255.752C530.55 264.412 530.567 272.986 529.783 283.961C524.381 284.298 519.204 286.549 515.828 289.813C514.59 290.938 512.339 293.077 512.339 296.228C512.339 298.816 513.802 302.08 516.278 302.868L516.278 302.868C516.728 302.98 517.178 303.093 517.628 303.093C522.13 303.093 527.87 296.791 530.008 290.713C530.346 289.588 530.683 287.675 530.908 285.086C534.06 284.974 537.211 285.649 540.024 287.112C540.193 287.224 540.39 287.337 540.586 287.449L540.587 287.449C540.784 287.562 540.981 287.675 541.15 287.787C540.362 289.588 539.799 291.614 539.687 293.864C539.687 293.926 539.686 293.99 539.686 294.056V294.064C539.681 295.59 539.672 298.44 541.825 300.054C543.401 301.292 545.539 301.405 547.002 301.067C548.353 300.842 549.365 300.167 549.816 299.266C550.266 298.479 550.266 297.466 549.928 296.34C549.028 293.414 545.989 289.813 542.5 287.337C544.076 284.298 546.439 282.047 547.79 280.922C554.767 275.07 580.213 277.321 584.039 277.771C584.377 283.736 589.329 288.462 595.294 288.462C601.596 288.462 606.66 283.398 606.66 277.096C606.66 270.793 601.371 265.841 595.181 265.841ZM519.429 213.171C519.429 204.731 526.294 197.865 534.735 197.865C543.175 197.865 550.04 204.731 550.04 213.171C550.04 221.612 543.175 228.477 534.735 228.477C533.834 228.477 532.934 228.365 532.146 228.252C532.484 222.963 532.934 218.348 533.609 214.747C534.847 214.634 535.86 213.621 535.86 212.271C535.86 210.92 534.735 209.795 533.384 209.795C532.034 209.795 530.908 210.92 530.908 212.271C530.908 213.284 531.583 214.184 532.484 214.522C531.808 218.123 531.358 222.625 531.021 227.914C524.381 226.451 519.429 220.374 519.429 213.171ZM528.77 290.263C526.519 296.903 520.104 302.868 516.503 301.742C514.59 301.067 513.239 298.366 513.352 296.228C513.352 293.527 515.377 291.614 516.503 290.601C519.654 287.675 524.493 285.424 529.558 285.086C529.333 287.449 529.108 289.25 528.77 290.263ZM548.578 296.565C548.803 297.466 548.803 298.141 548.578 298.704C548.24 299.266 547.565 299.717 546.552 299.942C544.976 300.279 543.288 299.942 542.275 299.154C540.569 297.874 540.581 295.383 540.586 294.072C540.587 293.999 540.587 293.93 540.587 293.864C540.587 291.839 541.15 290.038 541.825 288.462C545.314 290.713 547.902 294.202 548.578 296.565ZM595.181 287.337C589.554 287.337 584.94 282.723 584.94 277.096C584.94 271.468 589.554 266.854 595.181 266.854C600.808 266.854 605.422 271.468 605.422 277.096C605.422 282.723 600.808 287.337 595.181 287.337ZM598.845 276.957C598.845 279.133 597.082 280.896 594.906 280.896C592.731 280.896 590.967 279.133 590.967 276.957C590.967 274.782 592.731 273.018 594.906 273.018C597.082 273.018 598.845 274.782 598.845 276.957Z" fill="#2c3e50"/>
<path opacity="0.4" d="M945.685 645.11C959.19 645.11 972.807 645.11 986.313 645.11" stroke="#AFE3E2" stroke-width="2" stroke-miterlimit="10"/>
<path opacity="0.4" d="M788.575 625.978C770.681 625.415 766.404 625.865 766.179 626.541C765.954 627.553 774.845 629.354 783.061 629.692C786.662 629.804 795.778 630.142 797.353 627.441C798.141 626.09 796.791 624.627 796.678 624.515C794.427 622.151 788.688 622.264 782.61 622.376C773.382 622.602 764.041 622.602 754.812 622.827C740.97 623.164 735.68 622.714 734.892 624.29C733.767 626.428 740.97 629.917 742.32 630.592C746.034 632.393 756.5 637.007 803.543 635.206C808.608 634.981 818.624 634.531 829.766 631.042C834.493 629.579 842.033 627.103 841.695 624.74C841.47 623.389 838.657 620.913 810.859 618.663C796.791 617.537 777.096 616.412 752.674 616.862" stroke="#AFE3E2" stroke-width="2" stroke-miterlimit="10"/>
<path opacity="0.4" d="M570.468 574.546C552.573 573.983 548.297 574.433 548.072 575.108C547.847 576.121 556.738 577.922 564.953 578.26C568.555 578.372 577.67 578.71 579.246 576.009C580.034 574.658 578.683 573.195 578.571 573.083C576.32 570.719 570.58 570.832 564.503 570.944C555.274 571.169 545.933 571.169 536.705 571.395C522.862 571.732 517.573 571.282 516.785 572.858C515.659 574.996 522.862 578.485 524.213 579.16C527.927 580.961 538.393 585.575 585.436 583.774C590.5 583.549 600.517 583.099 611.658 579.61C616.385 578.147 623.926 575.671 623.588 573.308C623.363 571.957 620.549 569.481 592.751 567.23C578.683 566.105 558.988 564.98 534.567 565.43" stroke="#AFE3E2" stroke-width="2" stroke-miterlimit="10"/>
<path d="M878.834 395.49H732.416V405.507H878.834V395.49Z" fill="#D4D952"/>
<path d="M843.27 385.474H768.092V395.49H843.27V385.474Z" fill="#D4D952"/>
<path d="M785.086 395.49H763.703" stroke="#5C51A6" stroke-miterlimit="10"/>
<path d="M780.021 395.49V405.507" stroke="#5C51A6" stroke-miterlimit="10"/>
<path d="M805.681 385.474V395.49" stroke="#5C51A6" stroke-miterlimit="10"/>
<path d="M829.428 395.49V405.507" stroke="#5C51A6" stroke-miterlimit="10"/>
<path d="M830.103 395.49H820.199" stroke="#5C51A6" stroke-miterlimit="10"/>
<path d="M304.642 110.532H158.224V120.548H304.642V110.532Z" fill="#EBEAF4"/>
<path d="M269.078 100.516H193.899V110.532H269.078V100.516Z" fill="#EBEAF4"/>
<g opacity="0.2">
<path opacity="0.2" d="M954.576 193.589H685.599C685.599 164.44 697.416 142.157 716.435 127.189C735.455 112.108 761.79 104.455 790.939 104.455H807.032L804.894 25.2251L816.148 25L818.287 104.343H849.236C907.42 104.343 954.576 135.404 954.576 193.589Z" fill="#6BC6C4"/>
</g>
<path d="M438.905 251.886C445.742 251.886 451.285 246.343 451.285 239.506C451.285 232.669 445.742 227.126 438.905 227.126C432.068 227.126 426.525 232.669 426.525 239.506C426.525 246.343 432.068 251.886 438.905 251.886Z" fill="#AFE3E2"/>
<path d="M438.905 248.734C445.742 248.734 451.285 243.192 451.285 236.355C451.285 229.518 445.742 223.975 438.905 223.975C432.068 223.975 426.525 229.518 426.525 236.355C426.525 243.192 432.068 248.734 438.905 248.734Z" stroke="#5C51A6" stroke-miterlimit="10"/>
<path d="M433.954 232.866C434.517 235.905 435.304 238.944 435.755 241.982C435.867 242.432 436.43 242.77 436.767 242.432C438.118 241.532 439.356 239.619 440.481 238.831C442.17 237.481 443.745 236.018 445.433 234.554C445.883 234.104 445.658 233.429 444.983 233.429C443.07 233.316 441.157 232.866 439.356 232.641C438.343 232.416 436.205 232.416 434.854 232.079C434.292 231.966 433.841 232.416 433.954 232.866Z" fill="#5C51A6"/>
<path d="M459.725 157.688L423.486 160.614C416.733 161.177 410.881 155.775 410.994 149.022L411.106 132.478C411.106 125.726 417.071 120.436 423.824 121.111L459.95 124.713C465.915 125.275 470.416 130.34 470.416 136.305L470.304 146.434C470.304 149.81 471.317 166.354 471.317 166.354C471.317 166.354 462.313 157.463 459.725 157.688Z" stroke="#5C51A6" stroke-miterlimit="10"/>
<path d="M441.719 135.742H458.375" stroke="#5C51A6" stroke-miterlimit="10" stroke-linecap="round"/>
<path d="M441.719 140.581H458.375" stroke="#5C51A6" stroke-miterlimit="10" stroke-linecap="round"/>
<path d="M441.719 145.421H458.375" stroke="#5C51A6" stroke-miterlimit="10" stroke-linecap="round"/>
<path d="M637.093 94.7762L673.331 97.7023C680.084 98.265 689.2 62.3639 676.595 61.2385C663.653 60.1131 636.868 61.5761 636.868 61.5761C630.903 62.1388 626.401 67.2033 626.401 73.168L626.514 83.2969C626.514 85.6603 622.462 95.2264 620.099 100.628C619.536 101.754 620.887 102.879 622.012 102.317C626.851 99.503 635.292 94.6637 637.093 94.7762Z" stroke="#5C51A6" stroke-miterlimit="10"/>
<path d="M729.501 146.116C730.375 140.968 728.252 136.314 724.759 135.721C721.266 135.128 717.726 138.82 716.852 143.968C715.978 149.115 718.101 153.769 721.594 154.362C725.087 154.955 728.627 151.263 729.501 146.116Z" fill="#F8BCBF"/>
<path d="M653.411 75.8691H636.755" stroke="#5C51A6" stroke-miterlimit="10" stroke-linecap="round"/>
<path d="M653.411 80.7085H636.755" stroke="#5C51A6" stroke-miterlimit="10" stroke-linecap="round"/>
<path d="M741.42 140.469V148.91C741.42 155.212 736.355 160.501 729.94 160.614L694.715 161.514C694.715 161.514 671.756 175.245 670.743 174.119C669.73 172.994 683.685 144.52 685.148 142.72C686.724 140.694 688.862 139.231 691.451 138.556L726.677 129.215C734.105 127.189 741.42 132.816 741.42 140.469Z" stroke="#5C51A6" stroke-miterlimit="10"/>
<path d="M709.458 143.845L695.165 145.984C694.377 146.096 693.702 145.533 693.702 144.746C693.702 144.07 694.152 143.62 694.828 143.508L709.12 141.369C709.908 141.257 710.584 141.819 710.584 142.607C710.471 143.17 710.021 143.733 709.458 143.845Z" fill="#5C51A6"/>
<path d="M709.458 151.273L695.165 153.411C694.377 153.524 693.702 152.961 693.702 152.173C693.702 151.498 694.152 151.048 694.828 150.935L709.12 148.797C709.908 148.685 710.584 149.247 710.584 150.035C710.471 150.598 710.021 151.16 709.458 151.273Z" fill="#5C51A6"/>
<path d="M566.415 62.5894H508.118V128.089H566.415V62.5894Z" stroke="#5C51A6" stroke-miterlimit="10"/>
<path opacity="0.9" d="M575.419 96.2395H521.849C520.498 96.2395 519.373 95.114 519.373 93.7635V80.1459C519.373 78.7953 520.498 77.6699 521.849 77.6699H575.419C576.77 77.6699 577.895 78.7953 577.895 80.1459V93.7635C577.895 95.114 576.77 96.2395 575.419 96.2395Z" fill="#AFE3E2"/>
<path opacity="0.9" d="M575.419 119.873H521.849C520.498 119.873 519.373 118.748 519.373 117.397V103.78C519.373 102.429 520.498 101.304 521.849 101.304H575.419C576.77 101.304 577.895 102.429 577.895 103.78V117.397C577.895 118.748 576.77 119.873 575.419 119.873Z" fill="#C8ECEB"/>
<path d="M451.284 179.007C452.072 181.371 455.673 191.837 464.339 194.201C465.352 194.426 470.979 196.114 473.23 193.188C474.806 191.049 474.243 186.773 472.105 185.76C470.754 185.085 468.616 185.535 467.715 186.773C465.352 189.924 469.404 199.152 476.494 203.317C477.619 203.992 483.021 206.918 489.549 205.117C495.851 203.429 500.803 198.027 502.379 191.162" stroke="#5C51A6" stroke-miterlimit="10"/>
<path d="M585.322 155.774C591.625 151.272 607.493 139.23 610.307 130.114C610.869 128.426 611.77 125.5 610.307 124.037C609.069 122.799 606.143 122.912 604.567 124.375C602.766 125.95 602.654 128.764 603.554 130.452C605.355 133.828 611.657 133.491 614.471 133.378C629.439 132.59 647.333 121.111 645.87 111.545C645.645 109.857 644.632 107.268 640.468 104.455" stroke="#5C51A6" stroke-miterlimit="10"/>
<path d="M611.883 180.759C617.51 179.971 636.08 177.158 636.867 170.518C637.092 168.829 636.305 165.791 634.279 165.116C632.478 164.44 629.89 165.566 629.102 167.366C627.639 170.743 632.591 177.383 638.105 179.859C644.97 182.897 653.974 180.196 661.514 173.444" stroke="#5C51A6" stroke-miterlimit="10"/>
<path d="M437.554 92.1878C441.38 88.3614 447.232 83.522 455.335 79.6956C459.5 77.7824 463.439 76.4318 466.815 75.644" stroke="#5C51A6" stroke-miterlimit="10"/>
<path d="M435.754 100.403C439.58 96.5767 445.433 91.7374 453.536 87.9109C457.7 85.9977 461.639 84.6472 465.015 83.8594" stroke="#5C51A6" stroke-miterlimit="10"/>
<path opacity="0.4" d="M637.655 621.476C636.755 621.476 636.079 621.026 636.079 620.35L633.153 399.992H642.269L639.343 620.35C639.343 621.026 638.555 621.476 637.655 621.476Z" fill="#AFE3E2"/>
<path opacity="0.4" d="M572.268 621.476C571.368 621.476 570.693 621.026 570.693 620.35L567.767 399.992H576.883L573.956 620.35C573.844 621.026 573.169 621.476 572.268 621.476Z" fill="#AFE3E2"/>
<path d="M531.302 367.917C526.35 367.917 522.299 371.969 522.299 376.921C522.299 381.873 526.35 385.924 531.302 385.924H629.777" stroke="#5C51A6" stroke-width="2" stroke-miterlimit="10" stroke-linecap="round"/>
<path d="M485.385 386.487H481.671V376.696L485.385 375.795V386.487Z" fill="#9F98CA"/>
<path d="M634.279 621.476C633.379 621.476 632.703 621.026 632.703 620.35L629.777 399.992H638.893L635.967 620.35C635.967 621.026 635.179 621.476 634.279 621.476Z" stroke="#5C51A6" stroke-miterlimit="10"/>
<path d="M568.891 621.476C567.991 621.476 567.316 621.026 567.316 620.35L564.39 399.992H573.506L570.579 620.35C570.467 621.026 569.792 621.476 568.891 621.476Z" stroke="#5C51A6" stroke-miterlimit="10"/>
<path d="M648.684 401.905H414.933C412.12 401.905 409.981 399.655 409.981 396.953V395.04C409.981 392.227 412.232 390.088 414.933 390.088H648.572C651.386 390.088 653.524 392.339 653.524 395.04V396.953C653.636 399.767 651.386 401.905 648.684 401.905Z" fill="#F6A7AB"/>
<path d="M494.613 386.487H490.899V376.696L494.613 375.795V386.487Z" stroke="#5C51A6" stroke-miterlimit="10"/>
<path d="M579.358 385.811H576.319L567.541 350.248L571.48 348.222L579.358 385.811Z" stroke="#5C51A6" stroke-miterlimit="10"/>
<path d="M259.512 478.997C259.174 479.447 258.837 480.01 258.499 480.348V478.997H259.512Z" fill="#84D4D3"/>
<path d="M281.008 267.98L241.167 281.597C240.267 279.346 239.479 277.096 238.466 274.845C232.952 261.34 226.649 248.285 219.559 235.455C216.408 229.94 210.218 226.902 203.916 228.027C203.803 228.027 203.691 228.027 203.578 228.027C202.34 228.252 201.215 228.59 200.089 229.04L199.414 227.689C199.414 227.689 234.527 207.207 250.171 212.271C265.814 217.335 272.567 222.287 276.168 237.931L281.008 267.98Z" fill="#F0676E"/>
<path d="M259.512 478.997C259.174 479.447 258.837 480.01 258.499 480.348V478.997H259.512Z" fill="#AFE3E2"/>
<path d="M259.512 478.997C259.174 479.447 258.837 480.01 258.499 480.348V478.997H259.512Z" fill="#AFE3E2"/>
<path d="M244.318 494.303L259.287 479.447" stroke="#5C51A6" stroke-miterlimit="10" stroke-linecap="round"/>
<path d="M245.22 279.571L241.168 281.597L215.283 294.202L210.669 296.565" stroke="#5C51A6" stroke-miterlimit="10" stroke-linecap="round"/>
<path d="M193.336 250.536C188.047 241.532 193.336 229.94 203.69 228.14C203.803 228.14 203.915 228.14 204.028 228.14C210.218 227.014 216.52 230.053 219.671 235.568C224.286 243.896 228.675 252.449 232.614 261.115" stroke="#5C51A6" stroke-miterlimit="10" stroke-linecap="round"/>
<path opacity="0.2" d="M443.44 559.127L447.033 452.436C447.033 445.234 442.306 438.819 435.329 436.68L385.446 422.496C385.446 422.496 396.553 422.861 406.744 422.94C420.478 423.046 439.874 423.089 453.292 426.487C462.355 428.552 467.504 433.314 469.405 437.62C473.232 446.286 471.248 559.127 471.248 559.127L447.033 559.239L443.44 559.127Z" fill="white"/>
<path d="M471.375 559.352V568.243H443.127V559.127L471.375 559.352Z" fill="#F9C5C8"/>
<path d="M478.128 589.289L470.476 598.855C464.286 596.267 459.446 594.353 459.446 594.353L459.221 594.578L450.893 605.045H444.478L442.34 568.581L471.376 568.356H471.488V586.588L478.128 589.289Z" fill="#F2F1F8"/>
<path d="M443.127 568.243H403.287V574.771H443.127V568.243Z" fill="#F8B8BB"/>
<path d="M459.221 594.579L445.265 612.023L440.426 618.1H406.663C404.75 616.975 403.399 614.836 403.399 612.36V574.771H443.127V586.138L459.221 594.579Z" fill="white"/>
<path d="M379.707 167.591C381.395 166.578 393.1 156.675 391.749 153.073C390.849 150.597 385.447 151.498 384.547 148.684C383.871 146.658 386.347 144.52 387.923 142.157C392.762 135.404 389.836 119.31 383.309 117.397C358.999 110.307 340.993 140.468 340.993 140.468C343.243 136.079 343.243 131.69 340.993 129.552C338.066 126.738 332.102 129.214 331.314 129.552C320.735 133.941 318.709 148.234 315.108 147.671C312.857 147.221 313.532 141.819 310.156 140.468C307.117 139.231 301.94 141.706 300.477 145.42C298.226 151.16 305.879 157.237 303.853 160.389C302.841 161.964 299.464 162.752 290.123 160.051C285.284 180.196 294.287 199.216 296.876 206.306C299.014 212.496 302.053 220.936 308.693 222.174C313.532 223.075 319.947 220.036 321.748 215.309C324.336 208.669 316.121 203.38 316.796 192.238C317.021 187.399 319.497 187.061 320.847 184.81C336.266 183.572 369.016 174.344 379.707 167.591Z" fill="#6156A9"/>
<path d="M381.846 210.47L375.093 211.821C375.093 211.821 369.691 239.619 366.765 240.632C363.839 241.644 346.283 241.982 346.283 241.982L345.607 260.439L345.495 265.391V265.729L344.932 275.97C328.838 269.668 316.796 251.436 313.195 247.159C316.684 234.554 320.96 217.335 321.298 208.782C321.298 208.782 304.979 213.846 306.442 203.718C307.905 193.476 321.298 195.952 321.298 195.952C320.735 191 321.861 186.161 324.674 181.434C324.674 181.434 348.421 180.421 376.219 169.392L381.846 210.47Z" fill="#F8BCBF"/>
<path opacity="0.1" d="M330.639 412.484C330.188 412.484 329.738 412.484 329.288 412.484C323.773 412.259 313.645 409.671 308.58 394.815C307.567 391.664 306.442 387.5 305.316 382.21C303.628 374.22 301.602 363.19 299.464 349.46C295.863 326.502 293.049 303.993 292.937 303.093C291.586 292.064 299.352 281.935 310.381 280.584C321.41 279.234 331.539 286.999 332.889 298.028C335.815 321.437 340.767 355.087 343.919 372.306C357.761 366.004 379.257 359.702 396.589 351.036C406.605 346.084 424.499 382.21 414.483 387.162C348.308 420.137 336.041 412.484 330.639 412.484Z" fill="black"/>
<path d="M294.625 285.761C294.625 285.761 325.124 278.559 329.063 288.35C333.002 298.141 345.157 371.406 343.919 380.86" stroke="#6156A9" stroke-miterlimit="10" stroke-linecap="round"/>
<path d="M336.941 376.921C336.941 376.921 353.598 366.792 388.373 353.962" stroke="#6156A9" stroke-miterlimit="10" stroke-linecap="round"/>
<path d="M292.712 313.897C292.712 313.897 302.616 415.973 329.288 414.735C361.363 413.272 409.981 385.699 409.981 385.699" stroke="#6156A9" stroke-miterlimit="10" stroke-linecap="round"/>
<path d="M353.823 317.273C353.823 320.537 353.598 323.8 354.273 326.952C356.862 321.887 359 326.839 360.463 329.878C360.688 320.987 366.766 329.315 368.904 325.263" stroke="#6156A9" stroke-miterlimit="10" stroke-linecap="round"/>
<path d="M283.596 368.255C285.059 370.956 287.76 373.882 288.097 377.034" stroke="#6156A9" stroke-miterlimit="10" stroke-linecap="round"/>
<path d="M290.236 364.428C292.712 366.904 294.738 370.055 295.188 373.544" stroke="#6156A9" stroke-miterlimit="10" stroke-linecap="round"/>
<path d="M365.414 222.4C365.414 222.4 362.6 231.291 356.748 230.841C352.584 230.503 351.571 223.413 351.346 223.188L365.414 222.4Z" fill="white"/>
<path d="M353.822 202.93C355.065 202.93 356.073 201.922 356.073 200.679C356.073 199.436 355.065 198.428 353.822 198.428C352.579 198.428 351.571 199.436 351.571 200.679C351.571 201.922 352.579 202.93 353.822 202.93Z" fill="#6156A9"/>
<path d="M377.456 196.853C378.699 196.853 379.707 195.845 379.707 194.602C379.707 193.359 378.699 192.351 377.456 192.351C376.213 192.351 375.205 193.359 375.205 194.602C375.205 195.845 376.213 196.853 377.456 196.853Z" fill="#6156A9"/>
<path d="M357.086 187.062L345.494 196.853" stroke="#6156A9" stroke-width="2" stroke-miterlimit="10" stroke-linecap="round"/>
<path d="M373.517 187.512L386.009 191.226" stroke="#6156A9" stroke-width="2" stroke-miterlimit="10" stroke-linecap="round"/>
<path d="M343.355 191.901L356.073 191.113" stroke="#6156A9" stroke-width="2" stroke-miterlimit="10" stroke-linecap="round"/>
<path d="M367.327 213.959L379.707 211.483" stroke="#6156A9" stroke-miterlimit="10" stroke-linecap="round"/>
<path d="M314.095 204.393C314.095 204.393 315.67 202.255 319.159 203.042" stroke="#6156A9" stroke-miterlimit="10" stroke-linecap="round"/>
<path d="M314.095 201.242C314.095 201.242 318.371 204.393 318.146 206.307" stroke="#6156A9" stroke-miterlimit="10" stroke-linecap="round"/>
<path d="M333.34 177.27L328.95 200.229C328.95 200.229 318.597 196.064 314.095 195.727C306.78 190.775 320.847 173.894 320.847 173.894L333.34 177.27Z" fill="#6156A9"/>
<path d="M375.206 124.6C379.708 119.198 398.953 108.169 400.303 116.272C401.766 125.163 398.052 130.452 392.875 135.967C386.798 142.494 379.595 147.784 372.505 152.511C370.817 153.636 368.341 154.424 367.328 156.45" stroke="#B7E6E5" stroke-miterlimit="10"/>
<path d="M441.493 352.499C445.77 352.499 456.011 356.888 459.387 357.789" stroke="#6156A9" stroke-width="0.75" stroke-miterlimit="10" stroke-linecap="round"/>
<path d="M446.445 360.039C452.523 360.039 460.963 364.428 464.34 365.329" stroke="#6156A9" stroke-width="0.75" stroke-miterlimit="10" stroke-linecap="round"/>
<path d="M403.287 568.243H443.127" stroke="#5C51A6" stroke-miterlimit="10" stroke-linecap="round"/>
<path d="M403.287 575.334H443.127" stroke="#5C51A6" stroke-miterlimit="10" stroke-linecap="round"/>
<path d="M443.127 559.127H471.488" stroke="#5C51A6" stroke-miterlimit="10" stroke-linecap="round"/>
<path d="M443.127 568.243H471.488" stroke="#5C51A6" stroke-miterlimit="10" stroke-linecap="round"/>
<path d="M313.195 435.443C313.195 439.72 312.182 447.035 317.247 448.16C327.375 450.299 333.903 434.43 334.353 431.729" stroke="#F6A7AB" stroke-miterlimit="10" stroke-linecap="round"/>
<path d="M332.215 447.823L393.551 450.299C402.441 450.299 421.339 456.609 421.339 465.612V555.66" stroke="#F6A7AB" stroke-miterlimit="10" stroke-linecap="round"/>
<path d="M412.402 594.128C413.528 593.678 414.991 593.34 416.116 593.678" stroke="#5C51A6" stroke-miterlimit="10" stroke-linecap="round"/>
<path d="M413.866 598.293C414.879 597.842 415.554 597.392 416.68 597.505" stroke="#5C51A6" stroke-miterlimit="10" stroke-linecap="round"/>
<path d="M442.902 585.913C441.889 586.7 440.764 586.25 439.638 586.475C438.851 586.7 438.288 587.038 437.5 587.376" stroke="#5C51A6" stroke-miterlimit="10" stroke-linecap="round"/>
<path d="M461.358 584.45C462.146 584.112 462.934 583.099 463.609 583.324" stroke="#5C51A6" stroke-miterlimit="10" stroke-linecap="round"/>
<path d="M462.146 586.926C462.597 586.363 463.497 585.575 464.172 585.35" stroke="#5C51A6" stroke-miterlimit="10" stroke-linecap="round"/>
<path opacity="0.1" d="M370.254 316.148C370.254 316.148 369.354 297.016 365.64 291.726C365.64 291.726 384.209 317.611 384.209 320.65L370.254 316.148Z" fill="black"/>
<path opacity="0.2" d="M518.98 615.399C518.98 617.2 517.405 618.775 515.604 618.775H498.047C497.822 618.663 497.597 618.55 497.372 618.438C498.385 616.187 498.16 613.373 495.796 611.573C490.845 607.746 479.365 602.569 470.587 598.855L479.028 588.276C479.028 588.276 506.826 598.855 515.266 605.383C517.63 607.184 517.855 609.997 516.842 612.248C518.08 612.811 518.98 613.936 518.98 615.399Z" fill="white"/>
<path opacity="0.2" d="M401.541 478.435V498.017C397.715 502.406 392.087 507.921 388.036 511.297C388.261 510.622 388.486 509.947 388.486 509.271V496.779C388.486 482.149 367.666 470.444 353.148 470.444H261.763C262.551 465.492 263.114 460.54 263.676 455.701C267.165 423.851 266.602 391.889 261.988 360.602C258.049 333.592 251.071 307.145 241.28 281.71L281.12 268.092L282.471 281.147C265.815 308.495 252.76 353.062 276.506 420.475V443.771C276.506 457.389 287.535 468.306 301.04 468.306H391.412C397.039 468.306 401.541 472.807 401.541 478.435Z" fill="white"/>
<path opacity="0.4" d="M661.064 207.544V207.656C658.25 207.094 655.437 208.557 654.311 211.258L612.783 314.009C612.22 315.472 612.22 317.048 612.783 318.398C612.783 318.398 612.783 318.398 612.671 318.398C612.108 318.173 611.545 318.173 610.982 318.173C610.307 318.173 609.632 318.398 608.957 318.736L530.965 357.901C528.489 359.139 527.476 362.178 528.714 364.654L529.164 365.554L521.849 358.126L521.398 357.226C520.161 354.75 521.173 351.711 523.649 350.473L601.641 311.308C602.542 310.858 603.555 310.746 604.455 310.746C604.342 309.733 604.342 308.72 604.68 307.707L640.581 209.457C641.707 206.306 645.083 204.73 648.234 205.856L661.064 207.544Z" fill="white"/>
<path opacity="0.1" d="M352.494 470.331H261.763C262.551 465.379 263.114 460.428 263.676 455.588C267.165 423.739 266.603 391.777 261.988 360.49C258.049 333.479 251.072 307.032 241.28 281.597C240.38 279.346 239.592 277.096 238.579 274.845C233.065 261.34 226.762 248.285 219.672 235.455C216.521 229.94 210.331 226.901 204.029 228.027C203.916 228.027 203.804 228.027 203.691 228.027C202.453 228.252 201.328 228.59 200.202 229.04C192.212 232.529 188.61 242.432 193.337 250.423C214.383 286.211 229.126 324.814 237.341 364.541C244.882 401.343 246.908 439.044 242.969 476.409C241.618 478.547 240.83 481.023 240.83 483.724V509.046C240.83 511.972 243.194 514.336 246.007 514.336H383.309H383.422C384.21 514.223 385.898 512.985 388.036 511.184C388.261 510.509 388.486 509.834 388.486 509.159V496.666C388.486 482.148 367.012 470.331 352.494 470.331ZM258.387 480.348V478.997L259.4 478.885C259.175 479.447 258.837 479.897 258.387 480.348Z" fill="black"/>
<path d="M241.167 281.597L215.282 294.315C208.98 279.347 201.664 264.716 193.336 250.536C188.047 241.532 193.336 229.94 203.69 228.14C203.803 228.14 203.915 228.14 204.028 228.14C210.218 227.014 216.52 230.053 219.671 235.568C227.887 250.423 235.09 265.729 241.167 281.597Z" fill="#F3878C"/>
<path fill-rule="evenodd" clip-rule="evenodd" d="M285.31 514.528C285.515 514.294 285.87 514.27 286.104 514.475C288.811 516.843 299.914 526.895 299.914 541.908C299.914 542.767 299.886 546.96 298.715 551.503C297.868 554.787 296.402 558.336 293.849 560.915C293.883 560.942 293.917 560.969 293.951 560.997C297.306 563.703 300.136 567.623 301.354 571.799C303.158 577.91 301.372 583.756 298.718 588.522C296.088 593.243 292.568 596.976 290.698 598.96L290.639 599.022L290.633 599.028C290.586 599.075 290.517 599.145 290.429 599.235C289.954 599.719 288.915 600.778 287.683 601.898C288.061 602.751 287.958 603.783 287.67 604.773C287.323 605.968 286.661 607.261 285.933 608.46C284.479 610.855 282.69 612.987 282.338 613.398C279.564 616.748 273.152 622.676 260.408 625.179C260.103 625.239 259.807 625.041 259.747 624.736C259.687 624.431 259.886 624.135 260.191 624.075C272.651 621.627 278.844 615.854 281.474 612.677L281.48 612.669C281.811 612.283 283.56 610.2 284.971 607.876C285.679 606.711 286.283 605.515 286.59 604.459C286.796 603.747 286.85 603.165 286.763 602.712C286.64 602.819 286.515 602.924 286.39 603.029C285.389 603.867 284.323 604.663 283.361 605.173C282.882 605.427 282.401 605.624 281.95 605.71C281.5 605.795 281.018 605.78 280.601 605.525L280.584 605.515L280.567 605.503C279.954 605.065 279.741 604.244 279.741 603.526C279.741 602.78 279.965 601.947 280.45 601.323L280.455 601.317C281.288 600.277 282.767 599.893 284.079 599.939C285.143 599.975 286.284 600.302 287.022 600.978C288.178 599.92 289.152 598.929 289.622 598.451C289.71 598.361 289.781 598.289 289.832 598.238L289.865 598.203C291.732 596.222 295.174 592.573 297.734 587.974C300.314 583.343 301.959 577.822 300.275 572.117L300.274 572.115C299.129 568.188 296.445 564.455 293.244 561.873C293.168 561.811 293.091 561.749 293.013 561.689C292.257 562.33 291.417 562.891 290.484 563.346C287.89 564.642 284.77 564.956 282.25 564.724C280.987 564.608 279.846 564.353 278.975 563.995C278.54 563.816 278.153 563.605 277.85 563.357C277.551 563.113 277.294 562.801 277.197 562.415C277.057 561.855 277.272 561.287 277.579 560.814C277.895 560.326 278.37 559.842 278.929 559.403C280.045 558.524 281.588 557.751 283.148 557.45C286.299 556.8 289.83 558.013 292.941 560.23C295.351 557.854 296.782 554.49 297.625 551.222C298.761 546.817 298.789 542.738 298.789 541.908C298.789 527.436 288.059 517.68 285.363 515.322C285.129 515.117 285.106 514.762 285.31 514.528ZM292.08 561C289.174 558.985 286.04 558.001 283.372 558.553L283.364 558.555C281.999 558.817 280.617 559.506 279.625 560.287C279.128 560.678 278.752 561.073 278.523 561.426C278.285 561.794 278.26 562.027 278.289 562.142C278.305 562.207 278.368 562.327 278.562 562.485C278.752 562.641 279.032 562.802 279.402 562.954C280.142 563.258 281.167 563.494 282.353 563.603C284.728 563.822 287.626 563.517 289.984 562.338L289.989 562.336C290.749 561.965 291.444 561.515 292.08 561ZM286.174 601.734C285.705 601.357 284.933 601.094 284.04 601.063C282.906 601.024 281.855 601.372 281.336 602.017C281.036 602.406 280.866 602.978 280.866 603.526C280.866 604.084 281.036 604.44 281.205 604.575C281.298 604.624 281.46 604.657 281.74 604.604C282.037 604.548 282.405 604.406 282.834 604.178C283.691 603.724 284.686 602.987 285.668 602.166C285.838 602.023 286.007 601.879 286.174 601.734Z" fill="#5C51A6"/>
<path fill-rule="evenodd" clip-rule="evenodd" d="M335.788 514.528C335.993 514.762 335.969 515.117 335.735 515.322C333.04 517.68 322.31 527.436 322.31 541.908C322.31 542.738 322.338 546.817 323.474 551.222C324.317 554.49 325.747 557.854 328.158 560.23C331.269 558.013 334.8 556.8 337.951 557.45C339.511 557.751 341.054 558.524 342.17 559.403C342.729 559.842 343.203 560.326 343.52 560.814C343.827 561.287 344.041 561.855 343.901 562.415C343.805 562.801 343.548 563.113 343.248 563.357C342.945 563.605 342.559 563.816 342.124 563.995C341.253 564.353 340.111 564.608 338.849 564.724C336.329 564.956 333.208 564.642 330.614 563.346C329.681 562.891 328.842 562.33 328.085 561.689C328.008 561.749 327.931 561.811 327.854 561.873C324.654 564.455 321.97 568.188 320.824 572.115L320.824 572.117C319.139 577.822 320.785 583.343 323.364 587.974C325.925 592.573 329.367 596.222 331.234 598.203L331.267 598.238C331.318 598.289 331.388 598.361 331.477 598.451C331.946 598.929 332.92 599.92 334.077 600.978C334.814 600.302 335.956 599.975 337.02 599.939C338.331 599.893 339.811 600.277 340.644 601.317L340.648 601.323C341.134 601.947 341.358 602.78 341.358 603.526C341.358 604.244 341.145 605.065 340.531 605.503L340.515 605.515L340.498 605.525C340.081 605.78 339.599 605.795 339.149 605.71C338.698 605.624 338.217 605.427 337.737 605.173C336.776 604.663 335.71 603.867 334.708 603.029C334.583 602.924 334.459 602.819 334.336 602.712C334.249 603.165 334.302 603.747 334.509 604.459C334.816 605.515 335.42 606.711 336.127 607.876C337.538 610.2 339.287 612.283 339.619 612.669L339.625 612.677C342.255 615.854 348.447 621.627 360.908 624.075C361.213 624.135 361.412 624.431 361.352 624.736C361.292 625.041 360.996 625.239 360.691 625.179C347.947 622.676 341.535 616.748 338.761 613.398C338.409 612.987 336.62 610.855 335.165 608.46C334.438 607.261 333.776 605.968 333.428 604.773C333.141 603.783 333.038 602.751 333.415 601.898C332.184 600.778 331.145 599.719 330.67 599.235C330.581 599.145 330.512 599.075 330.465 599.028L330.459 599.022L330.401 598.96C328.531 596.976 325.01 593.243 322.381 588.522C319.727 583.756 317.94 577.91 319.744 571.799C320.963 567.623 323.793 563.703 327.148 560.997C327.182 560.969 327.216 560.942 327.25 560.915C324.697 558.336 323.231 554.787 322.384 551.503C321.213 546.96 321.185 542.767 321.185 541.908C321.185 526.895 332.288 516.843 334.994 514.475C335.228 514.27 335.584 514.294 335.788 514.528ZM334.925 601.734C335.092 601.879 335.261 602.023 335.431 602.166C336.413 602.987 337.408 603.724 338.264 604.178C338.694 604.406 339.062 604.548 339.358 604.604C339.638 604.657 339.8 604.624 339.894 604.575C340.063 604.44 340.232 604.084 340.232 603.526C340.232 602.978 340.063 602.406 339.762 602.017C339.244 601.372 338.193 601.024 337.058 601.063C336.166 601.094 335.393 601.357 334.925 601.734ZM329.019 561C329.655 561.515 330.35 561.965 331.11 562.336L331.115 562.338C333.472 563.517 336.371 563.822 338.746 563.603C339.931 563.494 340.957 563.258 341.696 562.954C342.067 562.802 342.347 562.641 342.537 562.485C342.731 562.327 342.793 562.207 342.81 562.142C342.838 562.027 342.814 561.794 342.576 561.426C342.347 561.073 341.97 560.678 341.474 560.287C340.481 559.506 339.1 558.817 337.735 558.555L337.727 558.553C335.059 558.001 331.925 558.985 329.019 561Z" fill="#5C51A6"/>
<path fill-rule="evenodd" clip-rule="evenodd" d="M365.134 501.781C365.355 502 365.356 502.356 365.137 502.577L350.281 517.545C350.063 517.766 349.706 517.767 349.486 517.548C349.265 517.329 349.264 516.973 349.483 516.752L364.338 501.784C364.557 501.563 364.913 501.562 365.134 501.781Z" fill="#5C51A6"/>
<path fill-rule="evenodd" clip-rule="evenodd" d="M355.345 501.782C355.565 502.002 355.565 502.359 355.345 502.578L340.377 517.546C340.157 517.766 339.801 517.766 339.581 517.546C339.361 517.327 339.361 516.97 339.581 516.751L354.549 501.782C354.769 501.563 355.125 501.563 355.345 501.782Z" fill="#5C51A6"/>
<path fill-rule="evenodd" clip-rule="evenodd" d="M345.554 501.782C345.774 502.002 345.774 502.359 345.554 502.578L330.586 517.546C330.366 517.766 330.01 517.766 329.79 517.546C329.57 517.327 329.57 516.97 329.79 516.751L344.758 501.782C344.978 501.563 345.334 501.563 345.554 501.782Z" fill="#5C51A6"/>
<path fill-rule="evenodd" clip-rule="evenodd" d="M335.648 501.781C335.868 502 335.87 502.356 335.651 502.577L320.795 517.545C320.576 517.766 320.22 517.767 319.999 517.548C319.779 517.329 319.777 516.973 319.996 516.752L334.852 501.784C335.071 501.563 335.427 501.562 335.648 501.781Z" fill="#5C51A6"/>
<path fill-rule="evenodd" clip-rule="evenodd" d="M325.858 501.782C326.078 502.002 326.078 502.359 325.858 502.578L310.89 517.546C310.671 517.766 310.314 517.766 310.095 517.546C309.875 517.327 309.875 516.97 310.095 516.751L325.063 501.782C325.282 501.563 325.639 501.563 325.858 501.782Z" fill="#5C51A6"/>
<path fill-rule="evenodd" clip-rule="evenodd" d="M316.067 501.782C316.287 502.002 316.287 502.359 316.067 502.578L301.099 517.546C300.88 517.766 300.523 517.766 300.303 517.546C300.084 517.327 300.084 516.97 300.303 516.751L315.272 501.782C315.491 501.563 315.848 501.563 316.067 501.782Z" fill="#5C51A6"/>
<path fill-rule="evenodd" clip-rule="evenodd" d="M306.162 501.781C306.383 502 306.384 502.356 306.165 502.577L291.31 517.545C291.091 517.766 290.735 517.767 290.514 517.548C290.293 517.329 290.292 516.973 290.511 516.752L305.367 501.784C305.586 501.563 305.942 501.562 306.162 501.781Z" fill="#5C51A6"/>
<path fill-rule="evenodd" clip-rule="evenodd" d="M296.372 501.782C296.592 502.002 296.592 502.359 296.372 502.578L281.404 517.546C281.184 517.766 280.828 517.766 280.608 517.546C280.388 517.327 280.388 516.97 280.608 516.751L295.576 501.782C295.796 501.563 296.152 501.563 296.372 501.782Z" fill="#5C51A6"/>
<path fill-rule="evenodd" clip-rule="evenodd" d="M286.582 501.782C286.802 502.002 286.802 502.359 286.582 502.578L271.614 517.546C271.394 517.766 271.038 517.766 270.818 517.546C270.598 517.327 270.598 516.97 270.818 516.751L285.786 501.782C286.006 501.563 286.362 501.563 286.582 501.782Z" fill="#5C51A6"/>
<path fill-rule="evenodd" clip-rule="evenodd" d="M276.677 501.782C276.897 502.002 276.897 502.359 276.677 502.578L261.709 517.546C261.489 517.766 261.133 517.766 260.913 517.546C260.693 517.327 260.693 516.97 260.913 516.751L275.881 501.782C276.101 501.563 276.457 501.563 276.677 501.782Z" fill="#5C51A6"/>
<path fill-rule="evenodd" clip-rule="evenodd" d="M266.887 501.782C267.107 502.002 267.107 502.359 266.887 502.578L251.919 517.546C251.699 517.766 251.343 517.766 251.123 517.546C250.903 517.327 250.903 516.97 251.123 516.751L266.091 501.782C266.311 501.563 266.667 501.563 266.887 501.782Z" fill="#5C51A6"/>
<path fill-rule="evenodd" clip-rule="evenodd" d="M261.261 484.565C261.48 484.786 261.479 485.142 261.258 485.361L246.29 500.217C246.07 500.436 245.713 500.434 245.494 500.214C245.275 499.993 245.277 499.637 245.497 499.418L260.466 484.562C260.686 484.343 261.042 484.345 261.261 484.565Z" fill="#5C51A6"/>
<path fill-rule="evenodd" clip-rule="evenodd" d="M259.684 493.567C259.903 493.787 259.903 494.143 259.684 494.363L244.715 509.331C244.496 509.551 244.139 509.551 243.92 509.331C243.7 509.111 243.7 508.755 243.92 508.535L258.888 493.567C259.108 493.347 259.464 493.347 259.684 493.567Z" fill="#5C51A6"/>
<path fill-rule="evenodd" clip-rule="evenodd" d="M261.26 499.082C261.48 499.302 261.48 499.658 261.26 499.878L246.292 514.846C246.072 515.066 245.716 515.066 245.496 514.846C245.276 514.626 245.276 514.27 245.496 514.05L260.464 499.082C260.684 498.862 261.04 498.862 261.26 499.082Z" fill="#5C51A6"/>
<path d="M621.224 321.55L529.727 366.229C528.601 366.792 527.251 366.567 526.463 365.666L514.083 352.386C513.183 351.599 511.945 352.724 512.62 353.624L524.212 370.281C525 371.406 526.576 371.856 527.814 371.181L622.687 324.251C623.25 324.026 623.587 323.463 623.587 322.9C623.475 321.775 622.237 321.1 621.224 321.55Z" fill="#5C51A6"/>
<g opacity="0.6">
<path opacity="0.2" d="M553.136 336.968C551.898 337.756 552.01 338.318 552.348 338.881L555.161 337.193C554.824 336.63 554.261 336.293 553.136 336.968Z" fill="black"/>
<path opacity="0.2" d="M532.203 347.434L537.268 352.499L551.11 345.184L545.483 340.344L532.203 347.434Z" fill="black"/>
<path opacity="0.2" d="M554.598 338.431C553.36 339.219 553.473 339.782 553.811 340.345L556.624 338.656C556.287 338.094 555.724 337.756 554.598 338.431Z" fill="black"/>
<path opacity="0.2" d="M556.062 339.782C554.824 340.569 554.937 341.132 555.274 341.695L558.088 340.007C557.75 339.444 557.075 339.219 556.062 339.782Z" fill="black"/>
<path opacity="0.2" d="M557.525 341.245C556.287 342.033 556.4 342.595 556.737 343.158L559.551 341.47C559.213 340.907 558.538 340.569 557.525 341.245Z" fill="black"/>
<path opacity="0.2" d="M561.352 334.267C561.014 333.704 560.339 333.366 559.326 334.042C558.088 334.829 558.201 335.392 558.538 335.955L561.352 334.267Z" fill="black"/>
<path opacity="0.2" d="M560.677 335.392C559.439 336.18 559.551 336.743 559.889 337.305L562.702 335.617C562.365 335.055 561.802 334.717 560.677 335.392Z" fill="black"/>
<path opacity="0.2" d="M562.139 336.743C560.901 337.531 561.014 338.093 561.352 338.656L564.165 336.968C563.828 336.405 563.265 336.18 562.139 336.743Z" fill="black"/>
<path opacity="0.2" d="M563.602 338.206C562.364 338.994 562.477 339.557 562.815 340.119L565.628 338.431C565.29 337.869 564.728 337.531 563.602 338.206Z" fill="black"/>
<path opacity="0.2" d="M567.429 331.229C567.091 330.666 566.416 330.328 565.403 331.004C564.165 331.791 564.278 332.354 564.615 332.917L567.429 331.229Z" fill="black"/>
<path opacity="0.2" d="M566.866 332.354C565.628 333.141 565.741 333.704 566.078 334.267L568.892 332.579C568.554 332.016 567.879 331.678 566.866 332.354Z" fill="black"/>
<path opacity="0.2" d="M568.217 333.704C566.979 334.492 567.091 335.055 567.429 335.618L570.242 333.929C570.017 333.367 569.342 333.142 568.217 333.704Z" fill="black"/>
<path opacity="0.2" d="M569.679 335.167C568.442 335.955 568.554 336.518 568.892 337.08L571.705 335.392C571.368 334.829 570.805 334.492 569.679 335.167Z" fill="black"/>
<path opacity="0.2" d="M573.506 328.19C573.168 327.627 572.493 327.289 571.48 327.964C570.242 328.752 570.355 329.315 570.692 329.878L573.506 328.19Z" fill="black"/>
<path opacity="0.2" d="M572.944 329.315C571.706 330.103 571.819 330.666 572.156 331.228L574.97 329.54C574.632 328.977 574.07 328.64 572.944 329.315Z" fill="black"/>
<path opacity="0.2" d="M574.407 330.666C573.169 331.454 573.282 332.016 573.619 332.579L576.433 330.891C576.095 330.328 575.42 330.103 574.407 330.666Z" fill="black"/>
<path opacity="0.2" d="M575.87 332.129C574.632 332.916 574.744 333.479 575.082 334.042L577.896 332.354C577.558 331.791 576.883 331.453 575.87 332.129Z" fill="black"/>
<path opacity="0.2" d="M579.695 325.151C579.358 324.588 578.683 324.251 577.67 324.926C576.432 325.714 576.544 326.276 576.882 326.839L579.695 325.151Z" fill="black"/>
<path opacity="0.2" d="M579.02 326.276C577.782 327.064 577.895 327.627 578.232 328.19L581.046 326.502C580.708 325.939 580.146 325.601 579.02 326.276Z" fill="black"/>
<path opacity="0.2" d="M580.483 327.627C579.245 328.415 579.358 328.977 579.695 329.54L582.509 327.852C582.171 327.289 581.609 327.064 580.483 327.627Z" fill="black"/>
<path opacity="0.2" d="M581.947 329.09C580.709 329.878 580.822 330.44 581.159 331.003L583.973 329.315C583.635 328.752 583.072 328.415 581.947 329.09Z" fill="black"/>
<path opacity="0.2" d="M585.774 322.112C585.436 321.55 584.761 321.212 583.748 321.887C582.51 322.675 582.622 323.238 582.96 323.801L585.774 322.112Z" fill="black"/>
<path opacity="0.2" d="M585.211 323.238C583.973 324.026 584.085 324.588 584.423 325.151L587.236 323.463C586.899 322.9 586.224 322.563 585.211 323.238Z" fill="black"/>
<path opacity="0.2" d="M586.561 324.588C585.323 325.376 585.436 325.939 585.774 326.501L588.587 324.813C588.362 324.25 587.687 323.913 586.561 324.588Z" fill="black"/>
<path opacity="0.2" d="M588.024 326.051C586.786 326.839 586.899 327.402 587.236 327.965L590.05 326.276C589.712 325.714 589.15 325.376 588.024 326.051Z" fill="black"/>
</g>
<g opacity="0.3">
<path opacity="0.3" d="M426.975 140.806C428.326 140.468 429.338 139.343 429.338 137.88C429.338 136.192 427.988 134.841 426.3 134.841C424.612 134.841 423.261 136.192 423.261 137.88C423.261 139.343 424.274 140.581 425.737 140.806C421.235 141.144 419.097 143.62 418.759 145.87C418.647 146.658 419.322 147.221 419.997 147.221H432.602C433.503 147.221 434.178 146.208 433.728 145.42C432.715 143.62 430.802 140.919 426.975 140.806Z" fill="white"/>
<path opacity="0.3" d="M665.565 88.0235C670.414 88.0235 674.344 84.0933 674.344 79.2451C674.344 74.397 670.414 70.4668 665.565 70.4668C660.717 70.4668 656.787 74.397 656.787 79.2451C656.787 84.0933 660.717 88.0235 665.565 88.0235Z" fill="white"/>
</g>
<path d="M504.629 65.7401C505.437 65.7401 506.092 65.085 506.092 64.277C506.092 63.469 505.437 62.814 504.629 62.814C503.821 62.814 503.166 63.469 503.166 64.277C503.166 65.085 503.821 65.7401 504.629 65.7401Z" fill="#AFE3E2"/>
<path d="M511.495 65.7401C512.303 65.7401 512.958 65.085 512.958 64.277C512.958 63.469 512.303 62.814 511.495 62.814C510.687 62.814 510.032 63.469 510.032 64.277C510.032 65.085 510.687 65.7401 511.495 65.7401Z" fill="#F6A7AB"/>
</svg>