<svg width="71" height="52" viewBox="0 0 71 52" fill="none" xmlns="http://www.w3.org/2000/svg">
<path d="M2.27012 5.24991L8.79418 2.71284C10.3384 2.11233 12.0571 2.82625 12.6331 4.30743L13.3284 6.09536L4.00835 9.71974L2.27012 5.24991Z" fill="#F0A5A5"/>
<path d="M26.3651 39.6191L17.045 43.2435L4.52981 11.0607L13.8499 7.43631L26.3651 39.6191Z" fill="#F0A5A5"/>
<path d="M17.045 43.2435L16.113 43.6059C16.3132 44.1207 16.8927 44.3757 17.4075 44.1755L17.045 43.2435ZM26.3651 39.6191L26.7275 40.5511C26.9747 40.455 27.1736 40.2646 27.2804 40.0218C27.3872 39.7791 27.3932 39.5038 27.2971 39.2567L26.3651 39.6191ZM2.27012 5.24991L1.90769 4.3179L0.975678 4.68034L1.33812 5.61234L2.27012 5.24991ZM4.00835 9.71974L3.07634 10.0822L3.43878 11.0142L4.37079 10.6517L4.00835 9.71974ZM13.3284 6.09536L13.6909 7.02737L14.6229 6.66493L14.2604 5.73292L13.3284 6.09536ZM4.52981 11.0607L4.16737 10.1287L3.23536 10.4911L3.5978 11.4231L4.52981 11.0607ZM13.8499 7.43631L14.7819 7.07387L14.4195 6.14186L13.4875 6.5043L13.8499 7.43631ZM17.4075 44.1755L26.7275 40.5511L26.0027 38.6871L16.6826 42.3115L17.4075 44.1755ZM8.43174 1.78083L1.90769 4.3179L2.63256 6.18191L9.15661 3.64485L8.43174 1.78083ZM1.33812 5.61234L3.07634 10.0822L4.94036 9.3573L3.20213 4.88747L1.33812 5.61234ZM14.2604 5.73292L13.5651 3.94499L11.7011 4.66986L12.3964 6.4578L14.2604 5.73292ZM4.37079 10.6517L13.6909 7.02737L12.966 5.16335L3.64591 8.78773L4.37079 10.6517ZM9.15661 3.64485C10.2231 3.23013 11.3394 3.73965 11.7011 4.66986L13.5651 3.94499C12.7749 1.91286 10.4537 0.994541 8.43174 1.78083L9.15661 3.64485ZM3.5978 11.4231L16.113 43.6059L17.977 42.881L5.46182 10.6983L3.5978 11.4231ZM27.2971 39.2567L14.7819 7.07387L12.9179 7.79875L25.4331 39.9815L27.2971 39.2567ZM4.89225 11.9927L14.2123 8.36832L13.4875 6.5043L4.16737 10.1287L4.89225 11.9927Z" fill="black"/>
<path d="M12.8032 7.50393L5.34717 10.4034C4.83244 10.6036 4.57743 11.1831 4.7776 11.6979L16.7381 42.4541C16.9382 42.9689 17.5178 43.2239 18.0325 43.0237L25.4886 40.1242C26.0033 39.924 26.2583 39.3445 26.0581 38.8298L14.0977 8.0735C13.8975 7.55876 13.318 7.30376 12.8032 7.50393Z" fill="#FACB54" stroke="black" stroke-width="2"/>
<path d="M26.5389 40.0661L17.2188 43.6905L22.136 47.2189C23.3018 48.0554 25.003 47.3938 25.2974 45.9895L26.5389 40.0661Z" fill="#FFECAA"/>
<path d="M17.2188 43.6905L16.8564 42.7585C16.5144 42.8915 16.2728 43.201 16.2267 43.565C16.1807 43.9291 16.3377 44.289 16.6358 44.5029L17.2188 43.6905ZM26.5389 40.0661L27.5177 40.2712C27.5929 39.9121 27.4655 39.5406 27.1856 39.3034C26.9058 39.0661 26.5184 39.0011 26.1765 39.1341L26.5389 40.0661ZM25.2974 45.9895L26.2761 46.1946L26.2761 46.1946L25.2974 45.9895ZM22.136 47.2189L22.719 46.4064L22.719 46.4064L22.136 47.2189ZM17.5813 44.6225L26.9014 40.9981L26.1765 39.1341L16.8564 42.7585L17.5813 44.6225ZM25.5602 39.8609L24.3186 45.7843L26.2761 46.1946L27.5177 40.2712L25.5602 39.8609ZM22.719 46.4064L17.8018 42.878L16.6358 44.5029L21.553 48.0313L22.719 46.4064ZM24.3186 45.7843C24.1725 46.4814 23.2977 46.8216 22.719 46.4064L21.553 48.0313C23.3059 49.2891 25.8335 48.3062 26.2761 46.1946L24.3186 45.7843Z" fill="black"/>
<path d="M69.05 5.83649L62.5259 3.29942C60.9817 2.69891 59.2629 3.41283 58.6869 4.894L57.9917 6.68194L67.3117 10.3063L69.05 5.83649Z" fill="#F0A5A5"/>
<path d="M44.955 40.2057L54.2751 43.8301L66.7903 11.6473L57.4702 8.02289L44.955 40.2057Z" fill="#F0A5A5"/>
<path d="M54.2751 43.8301L55.2071 44.1925C55.0069 44.7072 54.4274 44.9622 53.9126 44.7621L54.2751 43.8301ZM44.955 40.2057L44.5925 41.1377C44.3454 41.0416 44.1465 40.8512 44.0397 40.6084C43.9329 40.3657 43.9268 40.0904 44.023 39.8432L44.955 40.2057ZM69.05 5.83649L69.4124 4.90448L70.3444 5.26692L69.982 6.19892L69.05 5.83649ZM67.3117 10.3063L68.2437 10.6688L67.8813 11.6008L66.9493 11.2383L67.3117 10.3063ZM57.9917 6.68194L57.6292 7.61394L56.6972 7.25151L57.0596 6.3195L57.9917 6.68194ZM66.7903 11.6473L67.1527 10.7153L68.0847 11.0777L67.7223 12.0097L66.7903 11.6473ZM57.4702 8.02289L56.5382 7.66045L56.9006 6.72844L57.8326 7.09088L57.4702 8.02289ZM53.9126 44.7621L44.5925 41.1377L45.3174 39.2737L54.6375 42.8981L53.9126 44.7621ZM62.8883 2.36741L69.4124 4.90448L68.6875 6.76849L62.1635 4.23143L62.8883 2.36741ZM69.982 6.19892L68.2437 10.6688L66.3797 9.94388L68.118 5.47405L69.982 6.19892ZM57.0596 6.3195L57.7549 4.53157L59.619 5.25644L58.9237 7.04437L57.0596 6.3195ZM66.9493 11.2383L57.6292 7.61394L58.3541 5.74993L67.6742 9.37431L66.9493 11.2383ZM62.1635 4.23143C61.097 3.81671 59.9807 4.32623 59.619 5.25644L57.7549 4.53157C58.5452 2.49943 60.8664 1.58112 62.8883 2.36741L62.1635 4.23143ZM67.7223 12.0097L55.2071 44.1925L53.3431 43.4676L65.8583 11.2848L67.7223 12.0097ZM44.023 39.8432L56.5382 7.66045L58.4022 8.38533L45.887 40.5681L44.023 39.8432ZM66.4278 12.5793L57.1078 8.9549L57.8326 7.09088L67.1527 10.7153L66.4278 12.5793Z" fill="black"/>
<path d="M58.5169 8.0905L65.9729 10.99C66.4876 11.1902 66.7427 11.7697 66.5425 12.2845L54.582 43.0407C54.3819 43.5554 53.8023 43.8105 53.2876 43.6103L45.8315 40.7108C45.3168 40.5106 45.0618 39.9311 45.2619 39.4163L57.2224 8.66007C57.4226 8.14534 58.0021 7.89034 58.5169 8.0905Z" fill="#FACB54" stroke="black" stroke-width="2"/>
<path d="M44.7812 40.6527L54.1012 44.2771L49.1841 47.8054C48.0183 48.642 46.3171 47.9804 46.0227 46.576L44.7812 40.6527Z" fill="#FFECAA"/>
<path d="M54.1012 44.2771L54.4637 43.345C54.8056 43.478 55.0473 43.7876 55.0933 44.1516C55.1394 44.5156 54.9823 44.8756 54.6842 45.0895L54.1012 44.2771ZM44.7812 40.6527L43.8024 40.8578C43.7272 40.4987 43.8546 40.1272 44.1345 39.8899C44.4143 39.6527 44.8016 39.5877 45.1436 39.7207L44.7812 40.6527ZM46.0227 46.576L45.044 46.7812L45.044 46.7812L46.0227 46.576ZM49.1841 47.8054L48.6011 46.993L48.6011 46.993L49.1841 47.8054ZM53.7388 45.2091L44.4187 41.5847L45.1436 39.7207L54.4637 43.345L53.7388 45.2091ZM45.7599 40.4475L47.0015 46.3709L45.044 46.7812L43.8024 40.8578L45.7599 40.4475ZM48.6011 46.993L53.5182 43.4646L54.6842 45.0895L49.7671 48.6179L48.6011 46.993ZM47.0015 46.3709C47.1476 47.068 48.0224 47.4082 48.6011 46.993L49.7671 48.6179C48.0142 49.8757 45.4866 48.8928 45.044 46.7812L47.0015 46.3709Z" fill="black"/>
<path d="M36.0793 14.7853L42.3155 17.9648C43.7915 18.7174 44.5646 20.1581 44.0423 21.1826L43.4117 22.4193L34.5029 17.8771L36.0793 14.7853Z" fill="#F0A5A5"/>
<path d="M31.5888 45.6081L22.6799 41.0658L34.0299 18.8046L42.9388 23.3469L31.5888 45.6081Z" fill="#F0A5A5"/>
<path d="M22.6799 41.0658L21.789 40.6116C21.5381 41.1036 21.7336 41.7058 22.2257 41.9567L22.6799 41.0658ZM31.5888 45.6081L31.1345 46.499C31.3708 46.6194 31.6453 46.6411 31.8975 46.5592C32.1498 46.4773 32.3592 46.2986 32.4796 46.0623L31.5888 45.6081ZM36.0793 14.7853L36.5335 13.8944L35.6426 13.4401L35.1884 14.331L36.0793 14.7853ZM34.5029 17.8771L33.612 17.4229L33.1577 18.3137L34.0486 18.768L34.5029 17.8771ZM43.4117 22.4193L42.9575 23.3102L43.8484 23.7645L44.3026 22.8736L43.4117 22.4193ZM34.0299 18.8046L34.4842 17.9137L33.5933 17.4595L33.139 18.3504L34.0299 18.8046ZM42.9388 23.3469L43.8297 23.8011L44.2839 22.9102L43.393 22.456L42.9388 23.3469ZM22.2257 41.9567L31.1345 46.499L32.043 44.7172L23.1341 40.1749L22.2257 41.9567ZM42.7697 17.0739L36.5335 13.8944L35.625 15.6761L41.8612 18.8557L42.7697 17.0739ZM35.1884 14.331L33.612 17.4229L35.3937 18.3313L36.9701 15.2395L35.1884 14.331ZM44.3026 22.8736L44.9332 21.6368L43.1514 20.7284L42.5208 21.9651L44.3026 22.8736ZM34.0486 18.768L42.9575 23.3102L43.8659 21.5285L34.9571 16.9862L34.0486 18.768ZM41.8612 18.8557C42.4405 19.1511 42.8425 19.5632 43.0471 19.9446C43.254 20.33 43.2219 20.59 43.1514 20.7284L44.9332 21.6368C45.385 20.7506 45.2276 19.7781 44.8094 18.9989C44.3891 18.2157 43.6665 17.5312 42.7697 17.0739L41.8612 18.8557ZM33.139 18.3504L21.789 40.6116L23.5708 41.52L34.9208 19.2589L33.139 18.3504ZM32.4796 46.0623L43.8297 23.8011L42.0479 22.8927L30.6979 45.1538L32.4796 46.0623ZM33.5757 19.6955L42.4846 24.2378L43.393 22.456L34.4842 17.9137L33.5757 19.6955Z" fill="black"/>
<path d="M42.1519 22.6887L35.0248 19.0549C34.5328 18.8041 33.9305 18.9996 33.6797 19.4916L23.0838 40.2736C22.8329 40.7656 23.0284 41.3678 23.5205 41.6187L30.6475 45.2525C31.1396 45.5034 31.7418 45.3079 31.9927 44.8159L42.5885 24.0338C42.8394 23.5418 42.6439 22.9396 42.1519 22.6887Z" fill="#FACB54" stroke="black" stroke-width="2"/>
<path d="M31.4311 45.9172L22.5222 41.375L23.799 46.1447C24.1017 47.2755 25.7279 48.1046 26.8209 47.6854L31.4311 45.9172Z" fill="#FFECAA"/>
<path d="M22.5222 41.375L22.9765 40.4841C22.6246 40.3047 22.2001 40.3492 21.8931 40.5977C21.5861 40.8461 21.4541 41.252 21.5562 41.6336L22.5222 41.375ZM31.4311 45.9172L31.7892 46.8509C32.158 46.7095 32.4089 46.3643 32.4297 45.9698C32.4505 45.5754 32.2372 45.2057 31.8853 45.0263L31.4311 45.9172ZM26.8209 47.6854L27.179 48.6191L27.179 48.6191L26.8209 47.6854ZM23.799 46.1447L24.765 45.8861L24.765 45.8861L23.799 46.1447ZM22.068 42.2659L30.9769 46.8081L31.8853 45.0263L22.9765 40.4841L22.068 42.2659ZM31.073 44.9835L26.4628 46.7517L27.179 48.6191L31.7892 46.8509L31.073 44.9835ZM24.765 45.8861L23.4882 41.1164L21.5562 41.6336L22.833 46.4033L24.765 45.8861ZM26.4628 46.7517C26.2619 46.8288 25.8856 46.8184 25.4678 46.6054C25.0501 46.3924 24.8207 46.094 24.765 45.8861L22.833 46.4033C23.0801 47.3262 23.8151 48.0077 24.5594 48.3872C25.3036 48.7666 26.2869 48.9612 27.179 48.6191L26.4628 46.7517Z" fill="black"/>
<path d="M35.2783 14.7633L29.0421 17.9429C27.566 18.6955 26.7929 20.1361 27.3153 21.1607L27.9458 22.3974L36.8547 17.8552L35.2783 14.7633Z" fill="#F0A5A5"/>
<path d="M39.7688 45.5861L48.6777 41.0439L37.3276 18.7827L28.4188 23.325L39.7688 45.5861Z" fill="#F0A5A5"/>
<path d="M48.6777 41.0439L49.5686 40.5897C49.8194 41.0817 49.6239 41.6839 49.1319 41.9348L48.6777 41.0439ZM39.7688 45.5861L40.223 46.477C39.9867 46.5975 39.7123 46.6192 39.46 46.5373C39.2078 46.4554 38.9984 46.2766 38.8779 46.0404L39.7688 45.5861ZM35.2783 14.7633L34.8241 13.8724L35.715 13.4182L36.1692 14.3091L35.2783 14.7633ZM36.8547 17.8552L37.7456 17.4009L38.1998 18.2918L37.3089 18.746L36.8547 17.8552ZM27.9458 22.3974L28.4001 23.2883L27.5092 23.7425L27.0549 22.8516L27.9458 22.3974ZM37.3276 18.7827L36.8734 17.8918L37.7643 17.4376L38.2185 18.3285L37.3276 18.7827ZM28.4188 23.325L27.5279 23.7792L27.0736 22.8883L27.9645 22.4341L28.4188 23.325ZM49.1319 41.9348L40.223 46.477L39.3146 44.6953L48.2234 40.153L49.1319 41.9348ZM28.5879 17.052L34.8241 13.8724L35.7325 15.6542L29.4963 18.8338L28.5879 17.052ZM36.1692 14.3091L37.7456 17.4009L35.9638 18.3094L34.3874 15.2175L36.1692 14.3091ZM27.0549 22.8516L26.4244 21.6149L28.2062 20.7065L28.8367 21.9432L27.0549 22.8516ZM37.3089 18.746L28.4001 23.2883L27.4916 21.5065L36.4005 16.9643L37.3089 18.746ZM29.4963 18.8338C28.9171 19.1291 28.5151 19.5413 28.3104 19.9227C28.1036 20.3081 28.1356 20.5681 28.2062 20.7065L26.4244 21.6149C25.9726 20.7287 26.13 19.7562 26.5481 18.9769C26.9684 18.1937 27.6911 17.5093 28.5879 17.052L29.4963 18.8338ZM38.2185 18.3285L49.5686 40.5897L47.7868 41.4981L36.4367 19.2369L38.2185 18.3285ZM38.8779 46.0404L27.5279 23.7792L29.3096 22.8707L40.6597 45.1319L38.8779 46.0404ZM37.7818 19.6736L28.873 24.2158L27.9645 22.4341L36.8734 17.8918L37.7818 19.6736Z" fill="black"/>
<path d="M29.2057 22.6668L36.3328 19.033C36.8248 18.7821 37.427 18.9776 37.6779 19.4697L48.2738 40.2517C48.5246 40.7437 48.3291 41.3459 47.8371 41.5968L40.71 45.2306C40.218 45.4814 39.6158 45.2859 39.3649 44.7939L28.769 24.0119C28.5181 23.5199 28.7136 22.9177 29.2057 22.6668Z" fill="#FACB54" stroke="black" stroke-width="2"/>
<path d="M39.9265 45.8953L48.8353 41.353L47.5585 46.1227C47.2558 47.2536 45.6297 48.0827 44.5366 47.6635L39.9265 45.8953Z" fill="#FFECAA"/>
<path d="M48.8353 41.353L48.3811 40.4622C48.7329 40.2828 49.1574 40.3273 49.4644 40.5757C49.7714 40.8242 49.9034 41.2301 49.8013 41.6116L48.8353 41.353ZM39.9265 45.8953L39.5684 46.829C39.1996 46.6876 38.9486 46.3423 38.9278 45.9479C38.9071 45.5535 39.1204 45.1838 39.4722 45.0044L39.9265 45.8953ZM44.5366 47.6635L44.1785 48.5972L44.1785 48.5972L44.5366 47.6635ZM47.5585 46.1227L46.5925 45.8642L46.5925 45.8642L47.5585 46.1227ZM49.2895 42.2439L40.3807 46.7862L39.4722 45.0044L48.3811 40.4622L49.2895 42.2439ZM40.2846 44.9616L44.8947 46.7298L44.1785 48.5972L39.5684 46.829L40.2846 44.9616ZM46.5925 45.8642L47.8693 41.0945L49.8013 41.6116L48.5245 46.3813L46.5925 45.8642ZM44.8947 46.7298C45.0957 46.8069 45.472 46.7965 45.8897 46.5835C46.3075 46.3705 46.5369 46.072 46.5925 45.8642L48.5245 46.3813C48.2774 47.3043 47.5424 47.9858 46.7982 48.3653C46.0539 48.7447 45.0706 48.9393 44.1785 48.5972L44.8947 46.7298Z" fill="black"/>
</svg>
